<svg version="1.0" width="200.158" height="199.588" viewBox="0 0 150.119 149.691" preserveAspectRatio="xMidYMid" xml:space="preserve"><path d="M71.556 52.038c-.5.2-2.2.6-3.8.9-4.8 1.1-10.5 7.2-12.3 13.2-1.4 4.9-1.4 5.9 0 10.8 1.1 3.8 2.7 6.4 5.4 8.8 10.9 9.8 27.7 5.1 31.8-8.9 1.4-4.8 1.4-5.8 0-10.6-1.9-6.5-6.6-11.3-13.1-13.3-4.8-1.4-6.1-1.5-8-.9zm12.2 6.3c6.6 4.7 8.3 16.2 3.5 22.9-4.7 6.6-16.2 8.3-22.9 3.5-9.2-6.5-8-22.5 1.9-27.6 4.6-2.3 13.4-1.7 17.5 1.2z"/><path d="M72.056 67.538c0 5.3.2 6 2 6s2-.7 2-6-.2-6-2-6-2 .7-2 6zm0 12c0 1.3.7 2 2 2s2-.7 2-2-.7-2-2-2-2 .7-2 2z"/><path style="opacity:1;fill:#757575;fill-opacity:1;stroke-width:.75" d="M55.91 88.103a15.697 15.406 0 0 0-15.697 15.406 15.697 15.406 0 0 0 15.698 15.406 15.697 15.406 0 0 0 15.697-15.406A15.697 15.406 0 0 0 55.91 88.103Zm.108 3.217a12.112 12.403 0 0 1 12.11 12.403 12.112 12.403 0 0 1-12.11 12.403 12.112 12.403 0 0 1-12.112-12.403A12.112 12.403 0 0 1 56.018 91.32Z" transform="translate(19.056 -28.462)"/><path style="opacity:1;fill:#757575;fill-opacity:1;stroke-width:.75" d="M54.099 95.648h3.47v9.62h-3.47zm.158 12.38h3.312v3.312h-3.312z" transform="translate(19.056 -28.462)"/><path style="opacity:1;fill:#e0e0e0;fill-opacity:1;stroke-width:.74069" d="M-19.056 28.462h150.119v149.691H-19.056z" transform="translate(19.056 -28.462)"/><path style="fill:#757575;fill-opacity:1;stroke-width:.75" d="M55.992 87.927a15.697 15.406 0 0 0-15.697 15.406 15.697 15.406 0 0 0 15.697 15.406 15.697 15.406 0 0 0 15.698-15.406 15.697 15.406 0 0 0-15.698-15.406Zm.107 3.217a12.112 12.403 0 0 1 12.112 12.403 12.112 12.403 0 0 1-12.112 12.403 12.112 12.403 0 0 1-12.111-12.403 12.112 12.403 0 0 1 12.111-12.403Z" transform="translate(19.056 -28.462)"/><path style="fill:#757575;fill-opacity:1;stroke-width:.75" d="M54.181 95.472h3.47v9.62h-3.47zm.158 12.379h3.312v3.312h-3.312z" transform="translate(19.056 -28.462)"/></svg>